<svg id="レイヤー_1" data-name="レイヤー 1" xmlns="http://www.w3.org/2000/svg" viewBox="0 0 768 768" fill="#FFF"><title>アートボード 1</title><path d="M363.27,432.95a301.2,301.2,0,0,0,8.88,40h2.91c4.92-10.87,11.35-24.76,18.57-40Z"/><path d="M119,20V472.95H239.93c.32-8.78.68-17.43,1-25.88q.3-7.11.58-14.12H159V60H728V432.95H648.44c7.89,12.09,12.16,17.25,22.42,25.24a74.05,74.05,0,0,1,14.33,14.76H768V20Z"/><path d="M262.16,589.65c10.22,84,26.77,104.44,51.32,152.89,4.42,8.73,8.25,17.29,11.58,25.46H599.94c10.61-13.23,22.88-28.6,36.19-46.93C679.45,661.41,708.55,596,705.3,569.92s-18.46-15.7-21.72-41.8-10.33-42.72-25-54.15-19.88-19-31.69-37.56S612.75,403.17,588.1,396s-37.95-1.52-26.45-43.71,74.9-159.5,91.17-213.54-21.64-69.32-47.36-32.85-72.31,102.9-145.32,238.54C432.73,395.35,392.66,481.12,385,500.07s-13.37,33.17-23.73,4.21S339.65,435,341.17,397s-5.31-58.6-29.92-79.54-60.62-41-51.28,17.9S251.94,505.66,262.16,589.65Z"/><path d="M412,394.84c8.41-17.16,17-34.3,25-49.48V216.45H174v25H412Z"/><path d="M239.66,559.95H26V241.45h78v-25H1v368.5H241.53C240.69,576.81,240.09,568.45,239.66,559.95Z"/></svg>
