<svg id="レイヤー_1" data-name="レイヤー 1" xmlns="http://www.w3.org/2000/svg" viewBox="0 0 2834.65 2834.65" fill="#FFF "><title>icon</title><path d="M1576.42,1406.76,2784,199.19a56.86,56.86,0,0,0,0-80.18l-78.92-78.92a56.86,56.86,0,0,0-80.18,0L1417.32,1247.66,209.75,40.09a56.86,56.86,0,0,0-80.18,0L50.65,119a56.86,56.86,0,0,0,0,80.18L1258.23,1406.76,50.65,2614.34a56.86,56.86,0,0,0,0,80.18l78.92,78.92a56.86,56.86,0,0,0,80.18,0L1417.32,1565.86,2624.9,2773.44a56.86,56.86,0,0,0,80.18,0l78.92-78.92a56.86,56.86,0,0,0,0-80.18Z"/></svg>